<?xml version="1.0" encoding="UTF-8" standalone="no"?>
<!-- Created with Inkscape (http://www.inkscape.org/) -->

<svg
   xmlns:i="http://ns.adobe.com/AdobeIllustrator/10.0/"
   xmlns:a="http://ns.adobe.com/AdobeSVGViewerExtensions/3.0/"
   xmlns:dc="http://purl.org/dc/elements/1.1/"
   xmlns:cc="http://creativecommons.org/ns#"
   xmlns:rdf="http://www.w3.org/1999/02/22-rdf-syntax-ns#"
   xmlns:svg="http://www.w3.org/2000/svg"
   xmlns="http://www.w3.org/2000/svg"
   xmlns:xlink="http://www.w3.org/1999/xlink"
   xmlns:sodipodi="http://sodipodi.sourceforge.net/DTD/sodipodi-0.dtd"
   xmlns:inkscape="http://www.inkscape.org/namespaces/inkscape"
   width="275"
   height="275"
   id="svg3915"
   version="1.1"
   inkscape:version="0.48.3.1 r9886"
   sodipodi:docname="logo.svg"
   inkscape:export-filename="/home/jhill1/libadjoint.png"
   inkscape:export-xdpi="90"
   inkscape:export-ydpi="90">
  <sodipodi:namedview
     id="base"
     pagecolor="#ffffff"
     bordercolor="#666666"
     borderopacity="1.0"
     inkscape:pageopacity="0.0"
     inkscape:pageshadow="2"
     inkscape:zoom="2.1980268"
     inkscape:cx="44.18541"
     inkscape:cy="117.58058"
     inkscape:current-layer="layer1"
     inkscape:document-units="px"
     showgrid="false"
     inkscape:window-width="1920"
     inkscape:window-height="1056"
     inkscape:window-x="0"
     inkscape:window-y="24"
     inkscape:window-maximized="1"
     fit-margin-top="0"
     fit-margin-left="0"
     fit-margin-right="0"
     fit-margin-bottom="0" />
  <defs
     id="defs3917">
    <inkscape:path-effect
       effect="skeletal"
       id="path-effect4156"
       is_visible="true"
       pattern="M 0,0 0,10 10,5 z"
       copytype="single_stretched"
       prop_scale="1"
       scale_y_rel="false"
       spacing="0"
       normal_offset="0"
       tang_offset="0"
       prop_units="false"
       vertical_pattern="false"
       fuse_tolerance="0" />
    <inkscape:path-effect
       effect="spiro"
       id="path-effect4154"
       is_visible="true" />
    <marker
       inkscape:stockid="Arrow1Sstart"
       orient="auto"
       refY="0"
       refX="0"
       id="Arrow1Sstart"
       style="overflow:visible">
      <path
         id="path4226"
         d="M 0,0 5,-5 -12.5,0 5,5 0,0 z"
         style="fill-rule:evenodd;stroke:#000000;stroke-width:1pt;marker-start:none"
         transform="matrix(0.2,0,0,0.2,1.2,0)"
         inkscape:connector-curvature="0" />
    </marker>
    <marker
       inkscape:stockid="Arrow1Lstart"
       orient="auto"
       refY="0"
       refX="0"
       id="Arrow1Lstart"
       style="overflow:visible">
      <path
         id="path4214"
         d="M 0,0 5,-5 -12.5,0 5,5 0,0 z"
         style="fill-rule:evenodd;stroke:#000000;stroke-width:1pt;marker-start:none"
         transform="matrix(0.8,0,0,0.8,10,0)"
         inkscape:connector-curvature="0" />
    </marker>
    <linearGradient
       id="linearGradient5994">
      <stop
         style="stop-color:#d6dad6;stop-opacity:1;"
         offset="0"
         id="stop5996" />
      <stop
         style="stop-color:#ffffff;stop-opacity:1;"
         offset="1"
         id="stop5998" />
    </linearGradient>
    <marker
       inkscape:stockid="Arrow2Lend"
       orient="auto"
       refY="0"
       refX="0"
       id="Arrow2Lend"
       style="overflow:visible">
      <path
         id="path4992"
         style="font-size:12px;fill-rule:evenodd;stroke-width:0.625;stroke-linejoin:round"
         d="M 8.7185878,4.0337352 -2.2072895,0.01601326 8.7185884,-4.0017078 c -1.7454984,2.3720609 -1.7354408,5.6174519 -6e-7,8.035443 z"
         transform="matrix(-1.1,0,0,-1.1,-1.1,0)"
         inkscape:connector-curvature="0" />
    </marker>
    <marker
       inkscape:stockid="Arrow1Lend"
       orient="auto"
       refY="0"
       refX="0"
       id="Arrow1Lend"
       style="overflow:visible">
      <path
         id="path4974"
         d="M 0,0 5,-5 -12.5,0 5,5 0,0 z"
         style="fill-rule:evenodd;stroke:#000000;stroke-width:1pt;marker-start:none"
         transform="matrix(-0.8,0,0,-0.8,-10,0)"
         inkscape:connector-curvature="0" />
    </marker>
    <clipPath
       clipPathUnits="userSpaceOnUse"
       id="clipPath3001">
      <path
         inkscape:connector-curvature="0"
         d="M 0,0 0,783 585,783 585,0 0,0 z"
         id="path3003" />
    </clipPath>
    <clipPath
       clipPathUnits="userSpaceOnUse"
       id="clipPath3011">
      <path
         inkscape:connector-curvature="0"
         d="M 0,0 639,0 639,783 0,783 0,0 z"
         id="path3013" />
    </clipPath>
    <clipPath
       clipPathUnits="userSpaceOnUse"
       id="clipPath3021">
      <path
         inkscape:connector-curvature="0"
         d="m 27,0 0,783 612,0 L 639,0 27,0 z"
         id="path3023" />
    </clipPath>
    <clipPath
       clipPathUnits="userSpaceOnUse"
       id="clipPath3031">
      <path
         inkscape:connector-curvature="0"
         d="M 0,0 720,0 720,891 0,891 0,0 z"
         id="path3033" />
    </clipPath>
    <clipPath
       clipPathUnits="userSpaceOnUse"
       id="clipPath3043">
      <path
         inkscape:connector-curvature="0"
         d="m 45,846 630,0 0,-801 -630,0 0,801 z"
         id="path3045" />
    </clipPath>
    <clipPath
       clipPathUnits="userSpaceOnUse"
       id="clipPath3051">
      <path
         inkscape:connector-curvature="0"
         d="m 0,891.015 720,0 0,-891 -720,0 0,891 z"
         id="path3053" />
    </clipPath>
    <clipPath
       clipPathUnits="userSpaceOnUse"
       id="clipPath3061">
      <path
         inkscape:connector-curvature="0"
         d="m 60,446 549,0 0,-52 -549,0 0,52 z"
         clip-rule="evenodd"
         id="path3063" />
    </clipPath>
    <clipPath
       clipPathUnits="userSpaceOnUse"
       id="clipPath3073">
      <path
         inkscape:connector-curvature="0"
         d="m 583.002,411.929 -495.715,0 0,20.783 495.715,0 c 5.547,0 10.045,-4.653 10.045,-10.392 0,-5.739 -4.498,-10.391 -10.045,-10.391"
         clip-rule="evenodd"
         id="path3075" />
    </clipPath>
    <clipPath
       clipPathUnits="userSpaceOnUse"
       id="clipPath3085">
      <path
         inkscape:connector-curvature="0"
         d="m 583,411.929 -495.714,0 0,20.783 495.714,0 c 5.549,0 10.047,-4.653 10.047,-10.392 0,-5.739 -4.498,-10.391 -10.047,-10.391"
         clip-rule="evenodd"
         id="path3087" />
    </clipPath>
    <clipPath
       clipPathUnits="userSpaceOnUse"
       id="clipPath3093">
      <path
         inkscape:connector-curvature="0"
         d="m 583.002,411.929 -495.715,0 0,20.783 495.715,0 c 5.547,0 10.045,-4.653 10.045,-10.392 0,-5.739 -4.498,-10.391 -10.045,-10.391"
         clip-rule="evenodd"
         id="path3095" />
    </clipPath>
    <clipPath
       clipPathUnits="userSpaceOnUse"
       id="clipPath3113">
      <path
         inkscape:connector-curvature="0"
         d="m 45,846 630,0 0,-801 -630,0 0,801 z"
         id="path3115" />
    </clipPath>
    <clipPath
       clipPathUnits="userSpaceOnUse"
       id="clipPath3121">
      <path
         inkscape:connector-curvature="0"
         d="m 0,891.015 720,0 0,-891 -720,0 0,891 z"
         id="path3123" />
    </clipPath>
    <clipPath
       clipPathUnits="userSpaceOnUse"
       id="clipPath3131">
      <path
         inkscape:connector-curvature="0"
         d="m 58.62,815.78 550,0 0,-51.28 -550,0 0,51.28 z"
         clip-rule="evenodd"
         id="path3133" />
    </clipPath>
    <clipPath
       clipPathUnits="userSpaceOnUse"
       id="clipPath3143">
      <path
         inkscape:connector-curvature="0"
         d="m 582.612,782.41 -495.466,0 0,20.618 495.466,0 c 5.675,0 10.276,-4.615 10.276,-10.309 0,-5.694 -4.601,-10.309 -10.276,-10.309"
         clip-rule="evenodd"
         id="path3145" />
    </clipPath>
    <clipPath
       clipPathUnits="userSpaceOnUse"
       id="clipPath3155">
      <path
         inkscape:connector-curvature="0"
         d="m 582.775,782.41 -495.62,0 0,20.618 495.62,0 c 5.674,0 10.274,-4.615 10.274,-10.309 0,-5.694 -4.6,-10.309 -10.274,-10.309"
         clip-rule="evenodd"
         id="path3157" />
    </clipPath>
    <clipPath
       clipPathUnits="userSpaceOnUse"
       id="clipPath3163">
      <path
         inkscape:connector-curvature="0"
         d="m 582.612,782.41 -495.466,0 0,20.618 495.466,0 c 5.675,0 10.276,-4.615 10.276,-10.309 0,-5.694 -4.601,-10.309 -10.276,-10.309"
         clip-rule="evenodd"
         id="path3165" />
    </clipPath>
    <clipPath
       clipPathUnits="userSpaceOnUse"
       id="clipPath3259">
      <path
         inkscape:connector-curvature="0"
         d="m 45,846 630,0 0,-801 -630,0 0,801 z"
         id="path3261" />
    </clipPath>
    <clipPath
       clipPathUnits="userSpaceOnUse"
       id="clipPath3267">
      <path
         inkscape:connector-curvature="0"
         d="m 0,891.015 720,0 0,-891 -720,0 0,891 z"
         id="path3269" />
    </clipPath>
    <clipPath
       clipPathUnits="userSpaceOnUse"
       id="clipPath3867">
      <path
         inkscape:connector-curvature="0"
         d="m 428.19,268.89 107,0 0,-108.5 -107,0 0,108.5 z"
         clip-rule="evenodd"
         id="path3869" />
    </clipPath>
    <clipPath
       clipPathUnits="userSpaceOnUse"
       id="clipPath3875">
      <path
         inkscape:connector-curvature="0"
         d="m 45,846 630,0 0,-801 -630,0 0,801 z"
         id="path3877" />
    </clipPath>
    <clipPath
       clipPathUnits="userSpaceOnUse"
       id="clipPath3883">
      <path
         inkscape:connector-curvature="0"
         d="m 0,891.015 720,0 0,-891 -720,0 0,891 z"
         id="path3885" />
    </clipPath>
    <clipPath
       clipPathUnits="userSpaceOnUse"
       id="clipPath4031">
      <path
         inkscape:connector-curvature="0"
         d="m 229.19,268.89 107,0 0,-108.5 -107,0 0,108.5 z"
         clip-rule="evenodd"
         id="path4033" />
    </clipPath>
    <clipPath
       clipPathUnits="userSpaceOnUse"
       id="clipPath4039">
      <path
         inkscape:connector-curvature="0"
         d="m 45,846 630,0 0,-801 -630,0 0,801 z"
         id="path4041" />
    </clipPath>
    <clipPath
       clipPathUnits="userSpaceOnUse"
       id="clipPath4047">
      <path
         inkscape:connector-curvature="0"
         d="m 0,891.015 720,0 0,-891 -720,0 0,891 z"
         id="path4049" />
    </clipPath>
    <clipPath
       clipPathUnits="userSpaceOnUse"
       id="clipPath4195">
      <path
         inkscape:connector-curvature="0"
         d="m 428.19,383.89 107,0 0,-108.5 -107,0 0,108.5 z"
         clip-rule="evenodd"
         id="path4197" />
    </clipPath>
    <clipPath
       clipPathUnits="userSpaceOnUse"
       id="clipPath4203">
      <path
         inkscape:connector-curvature="0"
         d="m 45,846 630,0 0,-801 -630,0 0,801 z"
         id="path4205" />
    </clipPath>
    <clipPath
       clipPathUnits="userSpaceOnUse"
       id="clipPath4211">
      <path
         inkscape:connector-curvature="0"
         d="m 0,891.015 720,0 0,-891 -720,0 0,891 z"
         id="path4213" />
    </clipPath>
    <clipPath
       clipPathUnits="userSpaceOnUse"
       id="clipPath4361">
      <path
         inkscape:connector-curvature="0"
         d="m 229.19,383.89 107,0 0,-108.5 -107,0 0,108.5 z"
         clip-rule="evenodd"
         id="path4363" />
    </clipPath>
    <clipPath
       clipPathUnits="userSpaceOnUse"
       id="clipPath4369">
      <path
         inkscape:connector-curvature="0"
         d="m 45,846 630,0 0,-801 -630,0 0,801 z"
         id="path4371" />
    </clipPath>
    <clipPath
       clipPathUnits="userSpaceOnUse"
       id="clipPath4377">
      <path
         inkscape:connector-curvature="0"
         d="m 0,891.015 720,0 0,-891 -720,0 0,891 z"
         id="path4379" />
    </clipPath>
    <clipPath
       clipPathUnits="userSpaceOnUse"
       id="clipPath4525">
      <path
         inkscape:connector-curvature="0"
         d="m 428.19,697.89 107,0 0,-108.5 -107,0 0,108.5 z"
         clip-rule="evenodd"
         id="path4527" />
    </clipPath>
    <clipPath
       clipPathUnits="userSpaceOnUse"
       id="clipPath4533">
      <path
         inkscape:connector-curvature="0"
         d="m 45,846 630,0 0,-801 -630,0 0,801 z"
         id="path4535" />
    </clipPath>
    <clipPath
       clipPathUnits="userSpaceOnUse"
       id="clipPath4541">
      <path
         inkscape:connector-curvature="0"
         d="m 0,891.015 720,0 0,-891 -720,0 0,891 z"
         id="path4543" />
    </clipPath>
    <clipPath
       clipPathUnits="userSpaceOnUse"
       id="clipPath4689">
      <path
         inkscape:connector-curvature="0"
         d="m 229.19,697.89 107,0 0,-108.5 -107,0 0,108.5 z"
         clip-rule="evenodd"
         id="path4691" />
    </clipPath>
    <clipPath
       clipPathUnits="userSpaceOnUse"
       id="clipPath4697">
      <path
         inkscape:connector-curvature="0"
         d="m 45,846 630,0 0,-801 -630,0 0,801 z"
         id="path4699" />
    </clipPath>
    <clipPath
       clipPathUnits="userSpaceOnUse"
       id="clipPath4705">
      <path
         inkscape:connector-curvature="0"
         d="m 0,891.015 720,0 0,-891 -720,0 0,891 z"
         id="path4707" />
    </clipPath>
    <clipPath
       clipPathUnits="userSpaceOnUse"
       id="clipPath4853">
      <path
         inkscape:connector-curvature="0"
         d="m 45,846 630,0 0,-801 -630,0 0,801 z"
         id="path4855" />
    </clipPath>
    <clipPath
       clipPathUnits="userSpaceOnUse"
       id="clipPath4861">
      <path
         inkscape:connector-curvature="0"
         d="m 0,891.015 720,0 0,-891 -720,0 0,891 z"
         id="path4863" />
    </clipPath>
    <clipPath
       clipPathUnits="userSpaceOnUse"
       id="clipPath4889">
      <path
         inkscape:connector-curvature="0"
         d="m 86.5,365.24 105.5,0 0,-88.75 -105.5,0 0,88.75 z"
         clip-rule="evenodd"
         id="path4891" />
    </clipPath>
    <clipPath
       clipPathUnits="userSpaceOnUse"
       id="clipPath4897">
      <path
         inkscape:connector-curvature="0"
         d="m 45,846 630,0 0,-801 -630,0 0,801 z"
         id="path4899" />
    </clipPath>
    <clipPath
       clipPathUnits="userSpaceOnUse"
       id="clipPath4905">
      <path
         inkscape:connector-curvature="0"
         d="m 0,891.015 720,0 0,-891 -720,0 0,891 z"
         id="path4907" />
    </clipPath>
    <clipPath
       clipPathUnits="userSpaceOnUse"
       id="clipPath4917">
      <path
         inkscape:connector-curvature="0"
         d="m 86.5,402.79 105.5,0 0,-64.75 -105.5,0 0,64.75 z"
         clip-rule="evenodd"
         id="path4919" />
    </clipPath>
    <clipPath
       clipPathUnits="userSpaceOnUse"
       id="clipPath4925">
      <path
         inkscape:connector-curvature="0"
         d="m 45,846 630,0 0,-801 -630,0 0,801 z"
         id="path4927" />
    </clipPath>
    <clipPath
       clipPathUnits="userSpaceOnUse"
       id="clipPath4933">
      <path
         inkscape:connector-curvature="0"
         d="m 0,891.015 720,0 0,-891 -720,0 0,891 z"
         id="path4935" />
    </clipPath>
    <clipPath
       clipPathUnits="userSpaceOnUse"
       id="clipPath4945">
      <path
         inkscape:connector-curvature="0"
         d="m 45,846 630,0 0,-801 -630,0 0,801 z"
         id="path4947" />
    </clipPath>
    <clipPath
       clipPathUnits="userSpaceOnUse"
       id="clipPath4953">
      <path
         inkscape:connector-curvature="0"
         d="m 0,891.015 720,0 0,-891 -720,0 0,891 z"
         id="path4955" />
    </clipPath>
    <clipPath
       clipPathUnits="userSpaceOnUse"
       id="clipPath5005">
      <path
         inkscape:connector-curvature="0"
         d="m 0,0 1000,0 0,1000 L 0,1000 0,0 z"
         id="path5007" />
    </clipPath>
    <clipPath
       clipPathUnits="userSpaceOnUse"
       id="clipPath5013">
      <path
         inkscape:connector-curvature="0"
         d="m 363.5442,9.9144 c -1.7139,-0.949 -15.7138,-8.9704 -15.7714,-8.9856 -0.5451,-0.3634 -1.258,0 -1.258,0.6058 0,0.6058 0.7601,1.0147 0.7601,1.0147 0,0 1.7139,1.1106 1.7139,3.993 -0.0367,2.3878 -0.0472,6.1789 -0.0472,8.4808 -0.587,3.1096 -1.8502,3.5336 -1.8764,3.5841 -0.5818,0.5755 -0.6342,0.6159 -0.173,1.2216 0.4613,0.6058 1.6406,-0.1968 1.6406,-0.1968 0,0 14.0575,-7.976 14.8856,-8.4757 0.3093,-0.2777 0.8753,-0.6008 0.1258,-1.2419 m -24.294,-5.7245 c -1.8449,0 -40.752,-0.0101 -68.0965,-0.0101 -2.4058,0 -3.1763,3.1803 -3.1763,3.7356 0,1.4589 0.0367,2.9329 0.0367,4.7603 0,1.8274 1.5252,3.6397 3.0924,3.6397 1.5672,0 67.6406,-0.0051 68.2538,-0.0051 1.7297,0 3.1291,-1.8072 3.1291,-3.367 0,-1.9385 0.0105,-3.988 0.0105,-5.0632 0,-1.888 -1.4047,-3.6902 -3.2497,-3.6902 m -77.4734,11.8428 c -0.2568,-0.8329 -0.6762,-9.3339 0.0472,-11.3582 0.3302,-0.9389 1.174,-1.7163 1.7454,-2.5291 0.3197,-0.4543 0.414,-0.8177 -0.1206,-1.2468 -0.304,-0.3231 -0.8334,0.0656 -0.8334,0.0656 0,0 -9.7962,5.5175 -15.8081,8.925 -0.2464,0.2372 -0.2935,0.631 -0.1573,0.944 0.1258,0.2726 0.5661,0.5502 1.3104,0.944 3.7633,2.1202 14.2042,7.9305 14.6498,8.1981 0.8386,0.323 1.1793,-0.2929 1.1793,-0.2929 0,0 0.2568,-0.318 -0.3564,-1.0197 -0.4403,-0.212 -1.5777,-1.5245 -1.6563,-2.63"
         clip-rule="evenodd"
         id="path5015" />
    </clipPath>
    <linearGradient
       xlink:href="#rect1511_1_"
       gradientTransform="matrix(29.4937,0,0,-4.0625,9368.0537,2251.3835)"
       gradientUnits="userSpaceOnUse"
       id="rect1512_1_"
       x1="-317.25879"
       x2="-316.71561"
       y1="542.41022"
       y2="542.41022">
      <stop
         offset="0"
         style="stop-color:#A7873D"
         id="stop17" />
      <stop
         offset="1"
         style="stop-color:#663624"
         id="stop19" />
      <a:midPointStop
         offset="0"
         style="stop-color:#A7873D" />
      <a:midPointStop
         offset="0.5"
         style="stop-color:#A7873D" />
      <a:midPointStop
         offset="1"
         style="stop-color:#663624" />
    </linearGradient>
    <linearGradient
       gradientTransform="matrix(29.4937,0,0,-4.0625,9368.0537,2205.9695)"
       gradientUnits="userSpaceOnUse"
       id="rect1511_1_"
       x1="-317.25781"
       x2="-316.7146"
       y1="542.41211"
       y2="542.41211">
      <stop
         offset="0"
         style="stop-color:#18cc1c;stop-opacity:1;"
         id="stop11" />
      <stop
         offset="1"
         style="stop-color:#20701a;stop-opacity:1;"
         id="stop13" />
      <a:midPointStop
         offset="0"
         style="stop-color:#A7873D" />
      <a:midPointStop
         offset="0.5"
         style="stop-color:#A7873D" />
      <a:midPointStop
         offset="1"
         style="stop-color:#663624" />
    </linearGradient>
    <linearGradient
       xlink:href="#rect1511_1_-0"
       gradientTransform="matrix(29.4937,0,0,-4.0625,9368.0537,2251.3835)"
       gradientUnits="userSpaceOnUse"
       id="rect1512_1_-6"
       x1="-317.25879"
       x2="-316.71561"
       y1="542.41022"
       y2="542.41022">
      <stop
         offset="0"
         style="stop-color:#A7873D"
         id="stop17-9" />
      <stop
         offset="1"
         style="stop-color:#663624"
         id="stop19-2" />
      <a:midPointStop
         offset="0"
         style="stop-color:#A7873D" />
      <a:midPointStop
         offset="0.5"
         style="stop-color:#A7873D" />
      <a:midPointStop
         offset="1"
         style="stop-color:#663624" />
    </linearGradient>
    <linearGradient
       gradientTransform="matrix(29.4937,0,0,-4.0625,9368.0537,2205.9695)"
       gradientUnits="userSpaceOnUse"
       id="rect1511_1_-0"
       x1="-317.25781"
       x2="-316.7146"
       y1="542.41211"
       y2="542.41211">
      <stop
         offset="0"
         style="stop-color:#18a9ff;stop-opacity:1;"
         id="stop11-7" />
      <stop
         offset="1"
         style="stop-color:#2032a6;stop-opacity:1;"
         id="stop13-2" />
      <a:midPointStop
         offset="0"
         style="stop-color:#A7873D" />
      <a:midPointStop
         offset="0.5"
         style="stop-color:#A7873D" />
      <a:midPointStop
         offset="1"
         style="stop-color:#663624" />
    </linearGradient>
    <inkscape:perspective
       id="perspective10"
       inkscape:persp3d-origin="300 : 400 : 1"
       inkscape:vp_z="700 : 600 : 1"
       inkscape:vp_y="0 : 1000 : 0"
       inkscape:vp_x="-50 : 600 : 1"
       sodipodi:type="inkscape:persp3d" />
    <inkscape:perspective
       id="perspective45"
       inkscape:persp3d-origin="300 : 400 : 1"
       inkscape:vp_z="700 : 600 : 1"
       inkscape:vp_y="0 : 1000 : 0"
       inkscape:vp_x="-50 : 600 : 1"
       sodipodi:type="inkscape:persp3d" />
    <inkscape:perspective
       id="perspective31"
       inkscape:persp3d-origin="300 : 400 : 1"
       inkscape:vp_z="700 : 600 : 1"
       inkscape:vp_y="0 : 1000 : 0"
       inkscape:vp_x="-50 : 600 : 1"
       sodipodi:type="inkscape:persp3d" />
    <linearGradient
       gradientTransform="matrix(4.2842013,0,0,4.2842013,-211.9551,-277.78775)"
       gradientUnits="userSpaceOnUse"
       y2="113.3792"
       x2="172.25"
       y1="107.64789"
       x1="35.03125"
       id="linearGradient2618"
       xlink:href="#linearGradient2595"
       inkscape:collect="always" />
    <radialGradient
       gradientUnits="userSpaceOnUse"
       gradientTransform="matrix(4.7567736,1.6354959,-0.9409773,2.7368997,-67.711409,-595.79933)"
       r="186.90707"
       fy="250.50134"
       fx="92.778694"
       cy="250.50134"
       cx="92.778694"
       id="radialGradient2601"
       xlink:href="#linearGradient2595"
       inkscape:collect="always" />
    <linearGradient
       id="linearGradient5594">
      <stop
         style="stop-color:#b2d2e3;stop-opacity:1;"
         offset="0"
         id="stop5596" />
      <stop
         id="stop5602"
         offset="0.5"
         style="stop-color:#5a9fc3;stop-opacity:0.49803922;" />
      <stop
         style="stop-color:#5a9fc3;stop-opacity:0;"
         offset="1"
         id="stop5598" />
    </linearGradient>
    <radialGradient
       gradientUnits="userSpaceOnUse"
       gradientTransform="matrix(1.1696836,0.3090942,-0.1720308,0.6510061,159.66267,323.88021)"
       r="225.9326"
       fy="554.96655"
       fx="-212.73329"
       cy="554.96655"
       cx="-212.73329"
       id="radialGradient3111"
       xlink:href="#linearGradient3105"
       inkscape:collect="always" />
    <linearGradient
       id="linearGradient3105"
       inkscape:collect="always">
      <stop
         id="stop3107"
         offset="0"
         style="stop-color:#ffffff;stop-opacity:1;" />
      <stop
         id="stop3109"
         offset="1"
         style="stop-color:#ffffff;stop-opacity:0;" />
    </linearGradient>
    <linearGradient
       id="linearGradient2595"
       inkscape:collect="always">
      <stop
         id="stop2597"
         offset="0"
         style="stop-color:#ffffff;stop-opacity:1;" />
      <stop
         id="stop2599"
         offset="1"
         style="stop-color:#ffffff;stop-opacity:0;" />
    </linearGradient>
    <linearGradient
       inkscape:collect="always"
       xlink:href="#linearGradient2595"
       id="linearGradient6632"
       gradientUnits="userSpaceOnUse"
       gradientTransform="matrix(0.80280607,0,0,0.80280607,417.51342,251.27804)"
       x1="35.03125"
       y1="107.64789"
       x2="172.25"
       y2="113.3792" />
    <radialGradient
       gradientUnits="userSpaceOnUse"
       gradientTransform="matrix(4.7567736,1.6354959,-0.9409773,2.7368997,-67.711409,-595.79933)"
       r="186.90707"
       fy="250.50134"
       fx="92.778694"
       cy="250.50134"
       cx="92.778694"
       id="radialGradient2601-9"
       xlink:href="#linearGradient2595-5"
       inkscape:collect="always" />
    <linearGradient
       id="linearGradient2595-5"
       inkscape:collect="always">
      <stop
         id="stop2597-8"
         offset="0"
         style="stop-color:#ffffff;stop-opacity:1;" />
      <stop
         id="stop2599-8"
         offset="1"
         style="stop-color:#ffffff;stop-opacity:0;" />
    </linearGradient>
    <linearGradient
       inkscape:collect="always"
       xlink:href="#linearGradient2595-5"
       id="linearGradient6632-5"
       gradientUnits="userSpaceOnUse"
       gradientTransform="matrix(0.80280607,0,0,0.80280607,417.51342,251.27804)"
       x1="35.03125"
       y1="107.64789"
       x2="172.25"
       y2="113.3792" />
    <linearGradient
       y2="113.3792"
       x2="172.25"
       y1="107.64789"
       x1="35.03125"
       gradientTransform="matrix(0.80280607,0,0,0.80280607,417.51342,251.27804)"
       gradientUnits="userSpaceOnUse"
       id="linearGradient6684"
       xlink:href="#linearGradient2595-5"
       inkscape:collect="always" />
    <radialGradient
       gradientUnits="userSpaceOnUse"
       gradientTransform="matrix(4.7567736,1.6354959,-0.9409773,2.7368997,-67.711409,-595.79933)"
       r="186.90707"
       fy="250.50134"
       fx="92.778694"
       cy="250.50134"
       cx="92.778694"
       id="radialGradient2601-4"
       xlink:href="#linearGradient2595-6"
       inkscape:collect="always" />
    <linearGradient
       id="linearGradient2595-6"
       inkscape:collect="always">
      <stop
         id="stop2597-81"
         offset="0"
         style="stop-color:#ffffff;stop-opacity:1;" />
      <stop
         id="stop2599-85"
         offset="1"
         style="stop-color:#ffffff;stop-opacity:0;" />
    </linearGradient>
    <linearGradient
       inkscape:collect="always"
       xlink:href="#linearGradient2595-6"
       id="linearGradient6632-0"
       gradientUnits="userSpaceOnUse"
       gradientTransform="matrix(0.80280607,0,0,0.80280607,417.51342,251.27804)"
       x1="35.03125"
       y1="107.64789"
       x2="172.25"
       y2="113.3792" />
    <linearGradient
       y2="113.3792"
       x2="172.25"
       y1="107.64789"
       x1="35.03125"
       gradientTransform="matrix(0.80280607,0,0,0.80280607,417.51342,251.27804)"
       gradientUnits="userSpaceOnUse"
       id="linearGradient6684-7"
       xlink:href="#linearGradient2595-6"
       inkscape:collect="always" />
    <radialGradient
       gradientUnits="userSpaceOnUse"
       gradientTransform="matrix(4.7567736,1.6354959,-0.9409773,2.7368997,-67.711409,-595.79933)"
       r="186.90707"
       fy="250.50134"
       fx="92.778694"
       cy="250.50134"
       cx="92.778694"
       id="radialGradient2601-0"
       xlink:href="#linearGradient2595-2"
       inkscape:collect="always" />
    <linearGradient
       id="linearGradient2595-2"
       inkscape:collect="always">
      <stop
         id="stop2597-2"
         offset="0"
         style="stop-color:#ffffff;stop-opacity:1;" />
      <stop
         id="stop2599-4"
         offset="1"
         style="stop-color:#ffffff;stop-opacity:0;" />
    </linearGradient>
    <linearGradient
       inkscape:collect="always"
       xlink:href="#linearGradient2595-2"
       id="linearGradient6632-6"
       gradientUnits="userSpaceOnUse"
       gradientTransform="matrix(0.80280607,0,0,0.80280607,417.51342,251.27804)"
       x1="35.03125"
       y1="107.64789"
       x2="172.25"
       y2="113.3792" />
    <linearGradient
       y2="113.3792"
       x2="172.25"
       y1="107.64789"
       x1="35.03125"
       gradientTransform="matrix(0.80280607,0,0,0.80280607,417.51342,251.27804)"
       gradientUnits="userSpaceOnUse"
       id="linearGradient6684-2"
       xlink:href="#linearGradient2595-2"
       inkscape:collect="always" />
    <radialGradient
       inkscape:collect="always"
       xlink:href="#linearGradient2595"
       id="radialGradient6809"
       gradientUnits="userSpaceOnUse"
       gradientTransform="matrix(4.7567736,1.6354959,-0.9409773,2.7368997,-67.711409,-595.79933)"
       cx="92.778694"
       cy="250.50134"
       fx="92.778694"
       fy="250.50134"
       r="186.90707" />
    <linearGradient
       inkscape:collect="always"
       xlink:href="#linearGradient2595"
       id="linearGradient6811"
       gradientUnits="userSpaceOnUse"
       gradientTransform="matrix(0.80280607,0,0,0.80280607,417.51342,251.27804)"
       x1="35.03125"
       y1="107.64789"
       x2="172.25"
       y2="113.3792" />
    <linearGradient
       gradientTransform="matrix(29.4937,0,0,-4.0625,9368.0537,2205.9695)"
       gradientUnits="userSpaceOnUse"
       id="rect1511_1_-0-1"
       x1="-317.25781"
       x2="-316.7146"
       y1="542.41211"
       y2="542.41211">
      <stop
         offset="0"
         style="stop-color:#18a9ff;stop-opacity:1;"
         id="stop11-7-0" />
      <stop
         offset="1"
         style="stop-color:#2032a6;stop-opacity:1;"
         id="stop13-2-7" />
      <a:midPointStop
         offset="0"
         style="stop-color:#A7873D" />
      <a:midPointStop
         offset="0.5"
         style="stop-color:#A7873D" />
      <a:midPointStop
         offset="1"
         style="stop-color:#663624" />
    </linearGradient>
    <linearGradient
       inkscape:collect="always"
       xlink:href="#rect1511_1_-0-1"
       id="linearGradient6480-1"
       gradientUnits="userSpaceOnUse"
       gradientTransform="matrix(109.47099,0,0,-10.701033,34573.927,5440.3199)"
       x1="-317.25781"
       y1="542.41211"
       x2="-316.7146"
       y2="542.41211" />
    <linearGradient
       gradientTransform="matrix(29.4937,0,0,-4.0625,9368.0537,2205.9695)"
       gradientUnits="userSpaceOnUse"
       id="linearGradient3328"
       x1="-317.25781"
       x2="-316.7146"
       y1="542.41211"
       y2="542.41211">
      <stop
         offset="0"
         style="stop-color:#18a9ff;stop-opacity:1;"
         id="stop3330" />
      <stop
         offset="1"
         style="stop-color:#2032a6;stop-opacity:1;"
         id="stop3332" />
      <a:midPointStop
         offset="0"
         style="stop-color:#A7873D" />
      <a:midPointStop
         offset="0.5"
         style="stop-color:#A7873D" />
      <a:midPointStop
         offset="1"
         style="stop-color:#663624" />
    </linearGradient>
    <linearGradient
       inkscape:collect="always"
       xlink:href="#linearGradient6429-2"
       id="linearGradient3385-6"
       gradientUnits="userSpaceOnUse"
       x1="262.57196"
       y1="434.47842"
       x2="418.76096"
       y2="434.47842" />
    <linearGradient
       inkscape:collect="always"
       id="linearGradient6429-2">
      <stop
         style="stop-color:#0000ff;stop-opacity:1;"
         offset="0"
         id="stop6431-9" />
      <stop
         style="stop-color:#0000ff;stop-opacity:0;"
         offset="1"
         id="stop6433-0" />
    </linearGradient>
    <linearGradient
       inkscape:collect="always"
       xlink:href="#rect1511_1_-0"
       id="linearGradient5829"
       x1="95.85939"
       y1="383.73914"
       x2="287.7428"
       y2="383.73914"
       gradientUnits="userSpaceOnUse" />
    <marker
       inkscape:stockid="Arrow1SstartR"
       orient="auto"
       refY="0"
       refX="0"
       id="Arrow1SstartR"
       style="overflow:visible">
      <path
         id="path6405"
         d="M 0,0 5,-5 -12.5,0 5,5 0,0 z"
         style="fill:url(#linearGradient5829);fill-rule:evenodd;stroke:url(#linearGradient5829);stroke-width:1pt;marker-start:none"
         transform="matrix(0.2,0,0,0.2,1.2,0)"
         inkscape:connector-curvature="0" />
    </marker>
    <linearGradient
       y2="542.41211"
       x2="-316.7146"
       y1="542.41211"
       x1="-317.25781"
       gradientTransform="matrix(109.47099,0,0,-10.701033,34573.83,5320.2776)"
       gradientUnits="userSpaceOnUse"
       id="linearGradient6922"
       xlink:href="#rect1511_1_-0-1"
       inkscape:collect="always" />
    <linearGradient
       y2="542.41211"
       x2="-316.7146"
       y1="542.41211"
       x1="-317.25781"
       gradientTransform="matrix(109.47099,0,0,-10.701033,34573.927,5440.3199)"
       gradientUnits="userSpaceOnUse"
       id="linearGradient6924"
       xlink:href="#rect1511_1_-0-1"
       inkscape:collect="always" />
    <linearGradient
       y2="349.40738"
       x2="276.63547"
       y1="383.73914"
       x1="95.85939"
       gradientUnits="userSpaceOnUse"
       id="linearGradient6926"
       xlink:href="#linearGradient3328"
       inkscape:collect="always" />
    <marker
       inkscape:stockid="Arrow1SstartRN"
       orient="auto"
       refY="0"
       refX="0"
       id="Arrow1SstartRN"
       style="overflow:visible">
      <path
         id="path7129"
         d="M 0,0 5,-5 -12.5,0 5,5 0,0 z"
         style="fill:url(#linearGradient6926);fill-rule:evenodd;stroke:url(#linearGradient6926);stroke-width:1pt;marker-start:none"
         transform="matrix(0.2,0,0,0.2,1.2,0)"
         inkscape:connector-curvature="0" />
    </marker>
  </defs>
  <metadata
     id="metadata3920">
    <rdf:RDF>
      <cc:Work
         rdf:about="">
        <dc:format>image/svg+xml</dc:format>
        <dc:type
           rdf:resource="http://purl.org/dc/dcmitype/StillImage" />
        <dc:title />
      </cc:Work>
    </rdf:RDF>
  </metadata>
  <g
     id="layer1"
     inkscape:label="Layer 1"
     inkscape:groupmode="layer"
     transform="translate(-38.014955,-273.31643)">
    <g
       transform="matrix(1.940185,0,0,1.991539,522.19128,61.874217)"
       id="g2668"
       style="overflow:visible" />
    <path
       inkscape:connector-curvature="0"
       style="fill:#ffffff;fill-opacity:1;stroke:#000000;stroke-width:4.9951148"
       id="path1508-0-0"
       d="M 273.6976,449.96113 C 245.88769,392.74876 183.04745,436.01725 169.47161,408.08815 156.98863,382.40735 228.9459,358.05126 198.94669,296.33491 L 54.016346,371.41558 c 29.891893,61.49556 93.324484,15.53836 105.982754,41.57977 13.47567,27.72304 -54.85595,63.122 -31.58844,112.23117 l 145.28694,-75.26539 0,0 z"
       sodipodi:nodetypes="csccsccc" />
    <path
       inkscape:connector-curvature="0"
       style="fill:#cea441;fill-opacity:1"
       id="path1509-7-5"
       d="m 194.98405,304.3111 c -10.98862,5.38399 -125.15089,64.52536 -133.644,68.92519 0.629364,2.16139 7.814755,14.33085 21.0078,23.07945 7.815066,-4.04857 117.67232,-60.65113 117.67232,-60.65113 2.30071,-18.01879 -4.94287,-32.02828 -5.03612,-31.35351 z" />
    <path
       inkscape:connector-curvature="0"
       style="fill:#cea441;fill-opacity:1"
       id="path1510-0-2"
       d="m 235.88766,425.20791 c -27.78832,12.8341 -70.6202,34.09254 -96.61281,49.74132 -2.70644,-7.32693 35.63246,-43.0801 28.34932,-58.93006 7.96117,15.49871 61.07111,1.3897 68.26349,9.18874 z" />
    <rect
       style="fill:#2953cf;fill-opacity:1;stroke:#000000;stroke-width:3.61116934;stroke-linejoin:round;stroke-miterlimit:4;stroke-dasharray:none"
       y="-541.59839"
       x="-49.507397"
       width="165.04947"
       id="rect1511-4-0"
       height="16.410398"
       transform="matrix(-0.88853445,0.45880991,-0.43832071,-0.89881864,0,0)" />
    <path
       inkscape:connector-curvature="0"
       style="opacity:0.6;fill:#efefef;fill-opacity:1"
       id="path1513-8-4"
       i:knockout="Off"
       i:isolated="yes"
       enable-background="new    "
       d="m 254.10068,452.40684 -30.57721,15.84042 c -19.5535,-40.22674 -43.66828,-29.2128 -57.02179,-50.39827 23.51805,21.4013 66.28494,-0.41768 87.599,34.55785 z" />
    <path
       inkscape:connector-curvature="0"
       style="opacity:0.6;fill:#efefef;fill-opacity:1"
       id="path1514-5-2"
       i:knockout="Off"
       i:isolated="yes"
       enable-background="new    "
       d="m 185.59732,307.84263 -30.5772,15.84042 c 28.36387,36.84179 -4.45038,51.46885 6.58041,80.43542 -2.56401,-32.25645 51.67449,-50.44631 23.99679,-96.27584 z" />
    <rect
       style="fill:#2953cf;fill-opacity:1;stroke:#000000;stroke-width:3.5909977;stroke-linejoin:round;stroke-miterlimit:4;stroke-dasharray:none"
       y="-353.68698"
       x="-48.67207"
       width="164.68265"
       id="rect3161-8-6"
       height="16.263727"
       transform="matrix(-0.89133198,0.4533512,-0.44094692,-0.89753318,0,0)" />
    <path
       sodipodi:type="arc"
       style="fill:#e1b954;fill-opacity:1;stroke:none"
       id="path4171"
       sodipodi:cx="-18.151953"
       sodipodi:cy="379.15125"
       sodipodi:rx="4.8405209"
       sodipodi:ry="4.8405209"
       d="m -13.311432,379.15125 c 0,2.67334 -2.167175,4.84052 -4.840521,4.84052 -2.673346,0 -4.840521,-2.16718 -4.840521,-4.84052 0,-2.67335 2.167175,-4.84053 4.840521,-4.84053 2.673346,0 4.840521,2.16718 4.840521,4.84053 z"
       transform="matrix(0.25703725,0,0,0.25703725,156.96257,296.85594)" />
    <path
       sodipodi:type="arc"
       style="fill:#e1b954;fill-opacity:1;stroke:none"
       id="path4171-4"
       sodipodi:cx="-18.151953"
       sodipodi:cy="379.15125"
       sodipodi:rx="4.8405209"
       sodipodi:ry="4.8405209"
       d="m -13.311432,379.15125 c 0,2.67334 -2.167175,4.84052 -4.840521,4.84052 -2.673346,0 -4.840521,-2.16718 -4.840521,-4.84052 0,-2.67335 2.167175,-4.84053 4.840521,-4.84053 2.673346,0 4.840521,2.16718 4.840521,4.84053 z"
       transform="matrix(0.25703725,0,0,0.25703725,161.39721,301.45455)" />
    <path
       sodipodi:type="arc"
       style="fill:#e1b954;fill-opacity:1;stroke:none"
       id="path4171-8"
       sodipodi:cx="-18.151953"
       sodipodi:cy="379.15125"
       sodipodi:rx="4.8405209"
       sodipodi:ry="4.8405209"
       d="m -13.311432,379.15125 c 0,2.67334 -2.167175,4.84052 -4.840521,4.84052 -2.673346,0 -4.840521,-2.16718 -4.840521,-4.84052 0,-2.67335 2.167175,-4.84053 4.840521,-4.84053 2.673346,0 4.840521,2.16718 4.840521,4.84053 z"
       transform="matrix(0.25703725,0,0,0.25703725,160.03235,291.67305)" />
    <path
       sodipodi:type="arc"
       style="fill:#e1b954;fill-opacity:1;stroke:none"
       id="path4171-1"
       sodipodi:cx="-18.151953"
       sodipodi:cy="379.15125"
       sodipodi:rx="4.8405209"
       sodipodi:ry="4.8405209"
       d="m -13.311432,379.15125 c 0,2.67334 -2.167175,4.84052 -4.840521,4.84052 -2.673346,0 -4.840521,-2.16718 -4.840521,-4.84052 0,-2.67335 2.167175,-4.84053 4.840521,-4.84053 2.673346,0 4.840521,2.16718 4.840521,4.84053 z"
       transform="matrix(0.25703725,0,0,0.25703725,148.88599,288.03343)" />
    <path
       sodipodi:type="arc"
       style="fill:#e1b954;fill-opacity:1;stroke:none"
       id="path4171-7"
       sodipodi:cx="-18.151953"
       sodipodi:cy="379.15125"
       sodipodi:rx="4.8405209"
       sodipodi:ry="4.8405209"
       d="m -13.311432,379.15125 c 0,2.67334 -2.167175,4.84052 -4.840521,4.84052 -2.673346,0 -4.840521,-2.16718 -4.840521,-4.84052 0,-2.67335 2.167175,-4.84053 4.840521,-4.84053 2.673346,0 4.840521,2.16718 4.840521,4.84053 z"
       transform="matrix(0.25703725,0,0,0.25703725,155.02786,286.89604)" />
    <path
       sodipodi:type="arc"
       style="fill:#e1b954;fill-opacity:1;stroke:none"
       id="path4171-0"
       sodipodi:cx="-18.151953"
       sodipodi:cy="379.15125"
       sodipodi:rx="4.8405209"
       sodipodi:ry="4.8405209"
       d="m -13.311432,379.15125 c 0,2.67334 -2.167175,4.84052 -4.840521,4.84052 -2.673346,0 -4.840521,-2.16718 -4.840521,-4.84052 0,-2.67335 2.167175,-4.84053 4.840521,-4.84053 2.673346,0 4.840521,2.16718 4.840521,4.84053 z"
       transform="matrix(0.25703725,0,0,0.25703725,145.92879,275.74968)" />
    <path
       sodipodi:type="arc"
       style="fill:#e1b954;fill-opacity:1;stroke:none"
       id="path4171-75"
       sodipodi:cx="-18.151953"
       sodipodi:cy="379.15125"
       sodipodi:rx="4.8405209"
       sodipodi:ry="4.8405209"
       d="m -13.311432,379.15125 c 0,2.67334 -2.167175,4.84052 -4.840521,4.84052 -2.673346,0 -4.840521,-2.16718 -4.840521,-4.84052 0,-2.67335 2.167175,-4.84053 4.840521,-4.84053 2.673346,0 4.840521,2.16718 4.840521,4.84053 z"
       transform="matrix(0.25703725,0,0,0.25703725,154.11796,275.74968)" />
    <path
       sodipodi:type="arc"
       style="fill:#e1b954;fill-opacity:1;stroke:none"
       id="path4171-9"
       sodipodi:cx="-18.151953"
       sodipodi:cy="379.15125"
       sodipodi:rx="4.8405209"
       sodipodi:ry="4.8405209"
       d="m -13.311432,379.15125 c 0,2.67334 -2.167175,4.84052 -4.840521,4.84052 -2.673346,0 -4.840521,-2.16718 -4.840521,-4.84052 0,-2.67335 2.167175,-4.84053 4.840521,-4.84053 2.673346,0 4.840521,2.16718 4.840521,4.84053 z"
       transform="matrix(0.25703725,0,0,0.25703725,135.69234,274.15734)" />
  </g>
</svg>
